<?xml version="1.0" standalone="no"?>
<!DOCTYPE svg PUBLIC "-//W3C//DTD SVG 20010904//EN"
 "http://www.w3.org/TR/2001/REC-SVG-20010904/DTD/svg10.dtd">
<svg version="1.0" xmlns="http://www.w3.org/2000/svg"
 width="1668.000000pt" height="1375.000000pt" viewBox="0 0 1668.000000 1375.000000"
 preserveAspectRatio="xMidYMid meet">

<g transform="translate(0.000000,1375.000000) scale(0.100000,-0.100000)"
fill="#000000" stroke="none">
<path d="M0 6875 l0 -6875 8340 0 8340 0 0 6875 0 6875 -8340 0 -8340 0 0
-6875z m11120 6150 c44 -27 48 -41 25 -84 -10 -21 -12 -37 -5 -59 15 -53 22
-57 34 -21 9 27 16 34 36 34 19 0 26 -6 28 -25 1 -14 11 -45 22 -70 11 -25 29
-82 41 -128 13 -49 32 -96 46 -113 14 -16 48 -64 76 -106 92 -137 216 -291
255 -314 68 -42 110 -80 180 -167 84 -104 130 -149 157 -154 10 -2 25 -14 32
-28 7 -14 18 -37 25 -51 7 -15 50 -81 94 -147 170 -253 233 -421 259 -694 4
-38 10 -68 15 -68 9 0 128 115 220 215 l65 70 -1 215 c0 124 -6 246 -14 289
-7 41 -10 96 -7 123 5 35 3 48 -7 48 -7 0 -23 11 -36 25 -20 21 -22 31 -17 79
15 149 226 477 362 566 50 31 72 40 90 36 33 -8 33 -39 1 -115 -14 -32 -35
-100 -46 -152 -27 -118 -75 -262 -104 -314 -32 -55 -36 -83 -41 -321 -3 -115
-7 -228 -11 -252 -3 -24 -2 -56 1 -72 l6 -29 82 50 c45 28 93 61 107 74 14 12
72 57 130 99 97 71 250 189 327 251 18 15 97 56 175 92 79 36 193 89 254 119
61 30 121 54 134 54 24 0 60 -26 60 -43 0 -6 10 -21 22 -34 21 -22 23 -38 30
-197 7 -166 9 -176 41 -252 43 -101 64 -184 77 -309 11 -111 25 -200 40 -260
6 -22 13 -121 16 -220 3 -99 10 -195 16 -213 5 -19 10 -109 11 -200 0 -151 -3
-177 -27 -266 -26 -98 -43 -138 -76 -186 -9 -14 -27 -55 -39 -91 -24 -74 -49
-110 -171 -255 -115 -136 -244 -294 -248 -304 -2 -4 43 -10 100 -13 57 -3 157
-12 223 -20 117 -14 123 -16 260 -84 77 -39 164 -76 194 -82 29 -6 65 -18 80
-25 14 -8 47 -24 73 -36 55 -25 113 -89 153 -170 15 -30 37 -68 49 -85 12 -16
37 -57 56 -90 18 -33 55 -83 82 -112 26 -28 48 -56 48 -60 0 -5 23 -36 51 -68
74 -87 136 -220 155 -330 8 -49 31 -141 50 -204 19 -63 37 -133 40 -155 3 -23
12 -77 20 -121 7 -44 16 -109 19 -145 3 -36 11 -82 16 -103 8 -31 7 -44 -6
-63 -8 -13 -23 -24 -32 -24 -13 0 -14 -7 -9 -37 36 -209 52 -434 37 -518 -6
-33 -16 -100 -22 -150 -7 -49 -16 -96 -22 -102 -22 -29 -77 -8 -77 28 0 10 -9
21 -20 24 -25 8 -47 49 -61 115 -10 46 -16 54 -62 84 -29 18 -79 58 -112 89
-33 30 -80 65 -105 76 -25 11 -97 43 -160 72 -105 48 -123 53 -210 58 -138 9
-442 -5 -535 -23 -44 -9 -135 -34 -202 -56 -186 -61 -278 -74 -468 -66 -242
10 -369 32 -520 93 -56 22 -112 42 -135 48 -8 2 -69 19 -135 39 -66 19 -123
32 -127 28 -3 -4 -22 -54 -41 -112 -32 -96 -48 -137 -78 -210 -25 -59 -114
-218 -137 -244 -9 -10 -64 -59 -122 -108 -154 -131 -158 -136 -312 -327 -77
-97 -176 -210 -219 -252 l-79 -76 0 -75 c0 -41 7 -148 16 -239 17 -174 14
-520 -6 -664 -5 -38 -10 -133 -10 -210 0 -220 -36 -435 -90 -548 -11 -22 -20
-48 -20 -56 0 -29 -133 -409 -165 -472 -32 -63 -165 -237 -205 -269 -32 -25
-39 -36 -34 -54 5 -20 -22 -46 -208 -198 -117 -97 -247 -206 -288 -242 -80
-72 -267 -216 -365 -283 -270 -182 -541 -303 -975 -436 -304 -93 -396 -106
-730 -103 -140 2 -262 4 -270 5 -8 1 -55 7 -105 13 -49 5 -121 17 -160 25 -94
20 -100 21 -100 23 0 1 -11 4 -25 5 -36 5 -557 146 -870 235 -58 16 -157 44
-220 61 -147 39 -264 73 -525 150 -115 34 -235 69 -265 77 l-55 15 -110 -74
c-148 -101 -267 -174 -405 -249 -63 -35 -151 -84 -195 -110 -44 -26 -111 -64
-150 -85 -38 -21 -115 -65 -170 -98 -115 -69 -333 -180 -352 -180 -7 0 -13 -4
-13 -9 0 -4 -4 -8 -9 -8 -5 0 -38 -13 -73 -28 -177 -80 -395 -155 -512 -178
-11 -2 -47 -12 -80 -23 -137 -45 -890 -232 -1051 -261 -60 -11 -141 -26 -180
-34 -85 -17 -124 -23 -240 -35 -49 -6 -112 -13 -140 -16 -190 -21 -258 -26
-485 -31 -273 -7 -376 0 -515 37 -147 38 -283 133 -321 225 -24 58 -29 155
-11 209 35 100 197 301 349 430 189 162 378 271 688 398 189 78 276 111 480
183 382 136 855 231 1311 264 175 12 989 6 1109 -9 263 -33 725 -117 913 -165
153 -40 118 -52 297 99 184 155 306 254 430 348 171 130 289 237 420 382 64
72 204 216 309 320 192 190 261 272 403 480 41 61 108 157 148 215 135 191
198 291 252 393 135 262 158 370 124 595 -25 169 -113 309 -235 375 -98 53
-156 62 -406 61 -315 -1 -478 -25 -732 -110 -191 -63 -333 -128 -538 -244 -82
-48 -200 -114 -261 -148 l-111 -62 -12 -54 c-8 -34 -36 -93 -76 -158 -208
-336 -335 -478 -531 -591 -62 -36 -395 -209 -502 -261 -59 -29 -65 -35 -119
-125 -106 -181 -199 -313 -278 -397 -5 -6 -70 -79 -144 -163 -74 -83 -138
-151 -143 -151 -4 0 -8 -6 -8 -14 0 -8 -54 -66 -120 -129 -291 -279 -640 -440
-1060 -488 -134 -15 -430 -6 -520 16 -93 22 -217 71 -272 107 -64 41 -141 126
-172 192 -50 106 -70 223 -70 416 -1 152 2 187 23 265 40 153 135 373 217 501
61 96 138 181 398 439 323 322 409 386 715 539 123 62 415 194 516 234 28 11
97 38 155 61 58 23 114 46 125 51 44 20 241 72 376 99 226 46 360 59 619 59
l194 0 54 159 c68 199 105 331 213 753 52 202 135 560 149 642 5 26 16 73 24
105 9 32 38 150 65 263 28 113 53 213 57 223 3 9 2 17 -3 17 -5 0 -66 -32
-134 -71 -289 -166 -598 -281 -929 -344 -119 -23 -482 -31 -692 -16 l-166 13
-48 -34 c-27 -19 -92 -63 -144 -98 -52 -35 -165 -116 -250 -179 -301 -224
-475 -333 -635 -398 -33 -13 -73 -30 -90 -38 -77 -35 -253 -80 -373 -95 -114
-15 -348 -15 -417 0 -198 41 -285 200 -272 494 7 163 33 235 133 366 153 201
395 350 590 365 17 1 37 5 44 10 21 13 300 9 365 -4 76 -17 340 -98 470 -145
159 -58 361 -115 479 -136 60 -11 111 -20 113 -20 11 0 173 151 258 240 55 57
172 174 260 259 88 85 186 182 218 215 77 78 197 221 197 234 0 6 4 12 8 14 5
2 33 39 62 83 63 95 167 232 305 405 104 130 166 220 236 343 64 111 182 315
200 345 34 58 80 144 159 297 89 171 141 271 226 430 62 117 128 271 189 440
38 108 112 297 167 430 56 136 57 135 -45 40 -93 -87 -121 -109 -367 -292 -74
-55 -196 -156 -271 -224 -218 -199 -370 -312 -584 -434 -62 -36 -238 -155
-410 -278 -454 -324 -760 -453 -1029 -432 -137 10 -195 38 -234 110 -34 62
-14 270 38 413 34 92 119 242 173 308 9 10 51 64 94 120 43 55 114 147 158
204 129 166 244 298 418 477 184 189 226 235 350 380 115 134 156 175 317 318
74 66 188 170 252 232 146 139 180 165 210 161 40 -5 34 -40 -14 -78 -24 -19
-95 -85 -158 -146 -63 -61 -171 -161 -240 -221 -133 -118 -224 -209 -335 -338
-142 -166 -194 -223 -351 -384 -89 -91 -190 -200 -225 -242 -135 -161 -446
-572 -497 -656 -90 -150 -152 -397 -123 -493 17 -56 46 -72 157 -84 166 -18
317 15 506 109 188 94 359 203 658 420 63 46 158 110 210 141 52 32 152 95
223 140 70 46 127 80 127 76 0 -4 4 -2 8 4 4 6 45 44 92 85 47 40 104 91 127
113 23 21 51 45 62 52 11 8 37 31 58 52 54 54 139 121 309 246 180 132 444
389 476 465 70 161 107 238 158 326 31 55 85 152 120 215 102 188 166 278 270
381 102 101 162 135 207 118 48 -18 39 -55 -66 -268 -148 -298 -212 -392 -413
-604 -190 -200 -199 -213 -237 -312 -19 -50 -81 -208 -137 -353 -57 -144 -104
-265 -104 -268 0 -3 -11 -33 -24 -67 -13 -34 -41 -107 -62 -162 -52 -139 -351
-726 -521 -1023 -51 -90 -93 -165 -93 -167 0 -2 -32 -58 -71 -126 -78 -136
-173 -278 -258 -384 -31 -38 -65 -81 -76 -96 -11 -14 -63 -82 -115 -150 -52
-68 -112 -151 -133 -183 -90 -138 -211 -271 -561 -618 -204 -202 -368 -369
-365 -373 13 -13 495 -18 604 -6 208 23 434 82 670 176 95 38 289 131 350 169
28 17 61 37 75 44 14 7 54 30 89 52 l65 39 52 148 c134 380 205 574 233 642
27 64 154 311 224 436 82 146 171 239 275 288 62 29 75 31 172 32 91 0 111 -4
149 -23 61 -33 116 -95 131 -146 21 -75 8 -275 -23 -371 -56 -172 -251 -434
-471 -634 -142 -129 -260 -209 -476 -325 -69 -37 -136 -73 -150 -81 -20 -11
-29 -32 -53 -122 -47 -184 -148 -612 -172 -736 -13 -65 -28 -132 -34 -150 -5
-18 -24 -98 -42 -179 -19 -88 -36 -145 -42 -141 -6 3 -7 1 -3 -5 4 -6 0 -39
-9 -74 -99 -401 -138 -539 -206 -735 -22 -61 -39 -115 -39 -121 0 -5 37 -19
83 -30 150 -37 201 -53 272 -87 79 -38 152 -106 186 -175 12 -25 24 -47 25
-48 2 -4 53 25 244 137 410 240 702 352 1034 397 61 8 212 18 336 21 260 7
346 -5 465 -62 90 -43 143 -89 199 -174 80 -120 120 -273 120 -456 -1 -109 -4
-129 -34 -220 -62 -188 -164 -377 -335 -620 -47 -66 -119 -172 -161 -235 -150
-226 -201 -287 -465 -555 -114 -115 -227 -232 -251 -260 -138 -159 -282 -292
-483 -445 -135 -103 -247 -194 -340 -275 -38 -34 -89 -76 -113 -94 -24 -18
-42 -35 -40 -36 4 -4 405 -121 623 -181 88 -25 180 -51 205 -58 25 -7 146 -41
270 -74 124 -33 331 -91 460 -127 129 -37 251 -71 270 -75 261 -60 384 -73
675 -74 238 0 358 12 525 56 63 16 129 33 145 37 17 5 113 36 215 71 529 178
713 283 1195 680 77 64 171 140 208 170 56 44 67 58 63 76 -9 33 3 54 30 54
51 0 290 278 348 405 10 21 39 105 66 185 174 525 172 519 187 945 14 415 10
687 -16 917 l-6 58 -50 -48 c-73 -71 -331 -280 -395 -320 -101 -64 -190 -126
-207 -144 -18 -21 -63 -24 -81 -6 -20 20 -14 61 13 92 37 43 39 60 10 101 -32
47 -32 68 0 93 30 24 31 50 5 126 -11 32 -27 92 -35 134 -9 43 -34 122 -57
177 -22 55 -58 144 -79 197 -21 54 -50 119 -63 145 -44 86 -114 256 -137 333
-12 41 -37 96 -55 122 -18 26 -40 69 -50 95 -10 27 -31 68 -46 93 -15 25 -54
96 -85 159 l-57 113 2 105 c2 114 25 282 48 347 20 56 108 209 159 276 57 76
88 131 144 259 27 60 68 138 91 173 24 34 51 74 60 88 111 166 145 210 184
243 24 20 48 37 53 37 10 1 66 50 62 54 -9 9 -153 29 -234 33 -88 5 -93 4
-210 -42 -66 -25 -149 -53 -184 -61 -110 -26 -213 -65 -296 -114 -141 -83
-279 -159 -309 -170 -125 -47 -229 -116 -367 -244 -153 -143 -266 -184 -654
-235 -326 -44 -589 -50 -675 -16 -67 26 -108 28 -202 11 -127 -24 -135 -17
-117 109 7 44 13 126 15 181 2 85 7 110 27 150 15 30 28 77 32 119 4 39 12 81
17 95 6 14 19 58 29 99 24 87 52 147 127 260 65 99 137 173 248 258 45 34 88
73 98 88 10 15 33 44 53 66 30 33 41 39 75 39 33 0 54 10 107 49 90 66 250
169 341 218 182 100 384 149 775 187 93 10 629 13 900 6 236 -6 279 -10 344
-29 40 -12 75 -20 77 -18 6 5 -67 140 -96 177 -53 68 -96 179 -120 309 -6 36
-26 87 -46 121 -19 33 -42 79 -50 102 -19 54 -58 219 -78 328 -26 146 -66 332
-89 415 -18 68 -22 106 -22 250 0 116 4 181 13 205 7 19 17 85 22 147 8 97 41
248 80 373 7 19 24 78 40 130 51 173 169 431 224 490 23 25 69 78 101 119 33
41 79 90 102 110 40 33 43 38 43 86 0 29 3 55 7 58 13 13 44 7 83 -18z"/>
<path d="M10975 12728 c-44 -49 -93 -102 -108 -116 -32 -30 -75 -111 -102
-192 -10 -30 -32 -86 -50 -124 -18 -39 -40 -100 -49 -136 -9 -36 -32 -117 -51
-180 -19 -63 -42 -167 -50 -230 -9 -63 -21 -149 -27 -190 -5 -41 -10 -150 -9
-243 0 -162 2 -172 40 -315 22 -81 45 -178 50 -217 17 -109 57 -230 114 -341
8 -16 29 -94 47 -174 29 -130 37 -151 74 -200 22 -30 49 -67 58 -82 17 -27
126 -164 160 -202 28 -31 48 -82 48 -123 0 -30 7 -45 28 -65 43 -41 94 -68
129 -68 19 0 36 -7 41 -16 7 -13 12 -10 25 19 24 49 79 127 130 183 24 27 73
81 108 120 35 39 77 90 94 115 16 24 68 88 115 143 47 54 100 116 118 137 l33
38 -21 98 c-12 54 -29 116 -40 139 -36 84 -101 180 -139 209 -22 17 -52 52
-66 78 l-27 48 -34 -31 c-51 -44 -128 -80 -172 -80 -31 0 -51 -9 -98 -46 -32
-26 -86 -64 -119 -86 -33 -22 -72 -54 -87 -71 -23 -28 -29 -30 -55 -22 -39 14
-41 50 -5 111 16 27 53 92 82 144 61 109 129 198 245 320 45 47 105 111 135
143 46 49 62 60 120 77 92 28 125 26 146 -6 35 -53 11 -196 -52 -312 l-35 -64
31 -53 c17 -30 52 -72 78 -93 57 -48 151 -213 178 -312 10 -36 19 -67 21 -69
5 -8 54 42 101 104 26 33 66 78 90 100 l44 40 -21 157 c-12 89 -30 175 -41
201 -11 24 -26 73 -35 109 -8 37 -31 95 -51 130 -20 34 -71 133 -114 218 -42
85 -93 184 -113 218 -21 35 -37 66 -37 69 0 2 -18 31 -40 63 -22 32 -40 63
-40 67 0 12 -56 69 -113 116 -25 21 -74 74 -109 118 -35 45 -81 103 -104 130
-22 27 -64 89 -94 139 -29 50 -67 105 -84 123 -41 43 -112 144 -132 187 -23
49 -43 99 -43 106 0 6 -28 34 -33 33 -2 0 -39 -41 -83 -91z"/>
<path d="M6963 12491 c-75 -74 -166 -211 -275 -411 -47 -85 -100 -182 -118
-214 -19 -33 -28 -56 -22 -52 25 15 186 203 244 285 60 84 246 437 236 447 -3
3 -32 -22 -65 -55z"/>
<path d="M12785 11750 c-9 -15 -3 -102 11 -140 12 -33 13 -29 13 58 1 83 -7
110 -24 82z"/>
<path d="M13980 11730 c-36 -14 -85 -38 -110 -51 -161 -91 -220 -125 -260
-150 -25 -15 -91 -53 -148 -85 -56 -31 -142 -89 -191 -128 -72 -58 -303 -260
-357 -313 -7 -7 -15 -39 -19 -70 -3 -32 -12 -83 -20 -113 -7 -30 -16 -98 -19
-151 -2 -52 -12 -113 -20 -135 -8 -21 -22 -67 -30 -102 -9 -34 -33 -97 -55
-140 -21 -42 -53 -106 -69 -142 -17 -36 -47 -91 -66 -124 -20 -32 -36 -60 -36
-63 0 -2 15 7 33 21 19 15 39 26 45 26 15 0 138 85 187 129 23 20 84 72 138
115 131 107 377 382 377 421 0 7 -13 15 -30 18 -30 6 -47 40 -42 79 2 9 -2 19
-8 23 -5 3 -10 17 -10 31 0 67 58 119 285 258 132 81 148 88 225 97 36 4 89
11 117 15 69 9 103 -11 103 -60 0 -18 -6 -39 -14 -45 -7 -6 -19 -33 -26 -59
-12 -41 -34 -88 -103 -218 -10 -19 -27 -73 -37 -122 -28 -130 -65 -203 -159
-309 -119 -134 -207 -184 -496 -283 -60 -21 -132 -47 -160 -58 -77 -31 -329
-144 -340 -152 -10 -7 -111 -63 -184 -102 -19 -10 -46 -15 -60 -13 -22 5 -23
4 -6 -4 15 -7 16 -10 5 -11 -8 -2 -19 -2 -23 -1 -5 1 -6 -3 -3 -8 6 -9 -19
-37 -97 -108 l-47 -42 0 -111 c0 -87 4 -116 17 -137 19 -29 40 -140 48 -253 6
-82 20 -128 43 -147 34 -27 116 -15 244 36 68 27 134 52 147 56 27 8 70 41
237 182 179 151 224 202 224 256 0 69 86 202 238 368 73 80 148 101 192 54 22
-23 23 -29 17 -132 -8 -158 -38 -241 -135 -378 -58 -83 -122 -149 -164 -170
-42 -21 -100 -19 -124 3 -15 15 -29 18 -62 13 -35 -5 -57 -19 -125 -81 -161
-148 -205 -177 -370 -243 -150 -61 -154 -62 -247 -62 -117 1 -142 14 -180 97
l-26 58 -22 -76 c-13 -42 -22 -77 -20 -79 2 -1 26 -17 53 -35 28 -19 83 -65
123 -104 l72 -69 23 20 c12 11 36 28 54 37 17 8 41 29 53 46 12 17 36 38 53
47 18 9 55 37 84 63 29 26 64 51 79 54 15 4 41 18 58 31 43 33 185 91 243 100
26 3 75 13 108 20 33 7 94 19 135 25 41 7 92 18 113 26 20 8 72 14 115 14 l77
0 93 97 c111 116 186 212 272 348 34 55 79 120 99 144 64 78 138 192 149 229
37 126 42 164 42 300 0 127 -3 154 -30 250 -34 124 -92 469 -103 617 -3 33
-16 94 -30 135 -25 74 -55 267 -66 426 l-6 81 -65 -27z"/>
<path d="M13659 11653 c-13 -15 -12 -15 9 -4 23 12 28 21 13 21 -5 0 -15 -7
-22 -17z"/>
<path d="M12655 10820 c-107 -74 -149 -110 -194 -167 l-34 -44 -8 -152 c-7
-152 -21 -224 -79 -407 -11 -36 -20 -68 -20 -72 0 -4 19 2 43 12 23 11 51 20
63 20 27 0 44 20 84 100 48 97 69 130 116 181 42 46 75 126 105 258 29 124 41
331 20 331 -4 0 -47 -27 -96 -60z"/>
<path d="M13690 10816 c-189 -93 -185 -90 -237 -178 -26 -45 -77 -114 -113
-153 -36 -38 -96 -104 -133 -147 -37 -42 -94 -98 -127 -124 -32 -27 -57 -50
-55 -52 4 -4 67 14 100 28 11 5 65 26 120 46 188 69 243 103 343 216 81 91
112 150 137 260 9 40 22 86 27 101 6 15 9 29 7 31 -2 2 -33 -11 -69 -28z"/>
<path d="M12175 10323 c-22 -19 -57 -46 -77 -60 l-38 -26 6 -66 c4 -45 -1
-105 -15 -191 -19 -114 -28 -240 -16 -240 2 0 14 10 27 23 13 12 41 37 62 56
l39 33 -2 87 c-1 47 3 109 9 136 21 105 51 277 48 280 -2 2 -21 -12 -43 -32z"/>
<path d="M11952 10125 c-2 -14 -152 -165 -163 -165 -5 0 -9 -7 -9 -16 0 -20
-48 -88 -102 -144 -47 -49 -267 -375 -288 -427 -11 -28 -10 -36 4 -59 10 -14
21 -24 25 -22 5 2 42 44 82 93 41 50 93 109 116 133 48 50 166 108 257 126
l61 13 -3 104 c-2 64 3 143 13 206 9 56 14 117 12 135 -2 18 -5 28 -5 23z"/>
<path d="M12314 9852 c-21 -16 -45 -36 -53 -45 -11 -15 -11 -17 2 -17 16 0 38
18 77 63 30 35 23 34 -26 -1z"/>
<path d="M10970 9781 c0 -6 4 -13 10 -16 6 -3 7 1 4 9 -7 18 -14 21 -14 7z"/>
<path d="M12123 9684 c-25 -25 -43 -47 -41 -49 8 -8 81 14 89 27 10 16 12 68
2 68 -3 0 -26 -21 -50 -46z"/>
<path d="M13424 9617 c-42 -58 -57 -87 -44 -87 6 0 25 21 43 46 57 81 59 120
1 41z"/>
<path d="M9675 9573 c-339 -24 -558 -65 -735 -139 -105 -43 -299 -166 -510
-323 -63 -47 -138 -102 -166 -121 -28 -19 -51 -40 -51 -46 0 -15 -54 -102
-110 -175 -23 -31 -73 -117 -111 -190 -38 -74 -82 -159 -98 -189 -73 -136
-150 -365 -141 -423 2 -16 1 -47 -3 -67 -10 -56 -1 -64 51 -44 46 18 68 19
299 7 287 -15 620 -3 672 23 31 16 78 18 78 4 0 -26 140 5 232 51 32 16 95 62
139 102 174 155 241 202 363 254 33 14 103 50 154 79 52 30 96 54 99 54 4 0
38 20 77 44 84 51 165 85 296 121 98 27 163 48 215 70 17 7 41 16 55 20 14 4
31 12 38 18 33 26 347 1 449 -35 29 -11 36 -9 63 10 16 13 47 34 68 47 59 39
62 43 62 88 0 23 7 72 16 110 9 37 14 70 11 73 -2 3 -54 -10 -113 -30 -60 -19
-161 -47 -224 -63 -112 -27 -122 -28 -385 -28 l-270 0 -122 43 c-67 23 -138
42 -157 42 -36 0 -94 -27 -131 -60 -47 -42 -168 -83 -243 -83 -82 0 -66 82 54
281 73 121 111 168 162 201 26 17 65 44 86 61 41 32 77 38 93 18 5 -7 17 -36
27 -65 20 -58 15 -104 -23 -204 -11 -29 -19 -54 -18 -55 1 -1 29 -9 62 -17 33
-8 94 -28 135 -43 73 -27 82 -28 309 -32 188 -3 254 0 330 13 96 17 374 96
421 120 20 10 32 31 49 88 l24 75 -43 38 c-24 22 -49 45 -56 52 -11 10 -17 9
-34 -8 -37 -37 -79 -21 -103 40 -8 19 -12 40 -10 47 2 6 -2 24 -10 40 -16 30
-11 28 -222 85 -63 17 -117 19 -565 21 -272 2 -513 1 -535 0z"/>
<path d="M11825 9551 c-99 -33 -136 -64 -250 -206 -81 -102 -86 -111 -68 -123
35 -25 184 -112 192 -112 10 0 26 43 80 213 27 84 55 149 81 188 21 32 34 59
27 58 -7 0 -35 -8 -62 -18z"/>
<path d="M12152 9513 c5 -25 28 -28 28 -4 0 12 -6 21 -16 21 -9 0 -14 -7 -12
-17z"/>
<path d="M11990 9491 c-31 -5 -38 -13 -67 -71 -35 -72 -125 -348 -118 -360 3
-4 26 -13 51 -19 58 -15 126 -49 201 -101 l58 -41 18 58 c17 52 37 258 36 357
0 38 -32 93 -96 162 -23 25 -25 25 -83 15z"/>
<path d="M6625 9440 c-151 -32 -225 -116 -409 -472 -85 -164 -130 -272 -218
-523 -32 -93 -74 -215 -93 -269 -19 -55 -33 -101 -31 -103 5 -5 175 84 259
136 225 138 467 374 621 606 107 161 136 246 138 405 1 127 -16 171 -83 205
-33 18 -134 26 -184 15z"/>
<path d="M13327 9355 c-15 -14 -27 -33 -27 -41 0 -13 5 -12 31 3 16 10 40 28
51 41 l21 22 -24 0 c-13 0 -37 -11 -52 -25z"/>
<path d="M11320 9210 c-15 -28 -4 -39 17 -17 13 12 14 20 6 28 -8 8 -14 5 -23
-11z"/>
<path d="M9784 9145 c-31 -49 -74 -137 -74 -152 0 -15 45 48 72 100 58 116 60
141 2 52z"/>
<path d="M11357 9105 c-32 -25 -64 -48 -71 -52 -10 -7 -57 -231 -56 -270 0 -8
15 -13 41 -13 57 0 211 95 302 187 l67 69 -57 34 c-32 18 -79 46 -104 62 -25
15 -50 28 -55 28 -5 -1 -35 -21 -67 -45z"/>
<path d="M13730 9014 c-24 -25 -70 -61 -100 -79 -35 -21 -94 -77 -160 -149
-57 -64 -106 -116 -109 -116 -4 0 -22 -15 -41 -33 -19 -18 -57 -48 -85 -67
-27 -18 -68 -49 -91 -69 -66 -58 -209 -154 -263 -176 -27 -12 -56 -27 -65 -34
-9 -7 -36 -16 -61 -19 -47 -5 -52 -11 -35 -42 6 -11 22 -63 35 -116 23 -88 25
-109 22 -272 -4 -181 -10 -213 -62 -352 -10 -25 -35 -103 -56 -175 -21 -71
-45 -152 -54 -179 -20 -67 -19 -75 13 -82 77 -18 345 -103 387 -124 42 -19
177 -51 262 -61 113 -13 425 -13 484 0 26 6 95 26 155 45 234 76 261 79 559
80 306 1 298 2 480 -81 177 -80 180 -82 266 -160 44 -39 95 -80 113 -91 l34
-20 6 86 c3 48 10 132 16 187 10 107 2 171 -24 191 -22 16 -20 51 4 66 16 10
20 24 20 70 0 39 5 62 16 73 16 15 16 26 0 148 -15 112 -66 342 -81 368 -3 4
-14 57 -24 117 -20 120 -50 190 -113 270 -21 26 -49 65 -64 87 -14 22 -40 55
-57 72 -35 37 -129 184 -183 287 -48 92 -89 142 -128 156 -17 6 -49 20 -71 30
-22 11 -61 22 -86 25 -28 3 -66 19 -98 40 -29 19 -56 35 -61 35 -4 0 -37 16
-73 35 -53 28 -81 36 -163 45 -54 6 -117 15 -139 20 -22 5 -94 10 -160 10
l-120 0 -45 -46z"/>
<path d="M11638 8883 c-51 -49 -114 -101 -141 -117 -26 -17 -47 -33 -47 -36 0
-4 12 -12 28 -19 100 -46 223 -168 293 -291 58 -102 51 -97 96 -65 57 41 81
83 114 203 21 73 41 120 64 153 19 26 35 56 35 67 0 20 -100 102 -165 135 -26
13 -163 57 -178 57 -3 0 -47 -39 -99 -87z"/>
<path d="M13335 8956 c-110 -16 -202 -38 -281 -70 -121 -49 -270 -125 -294
-151 -14 -15 -41 -35 -60 -45 -19 -10 -45 -32 -58 -49 -12 -17 -40 -40 -62
-51 -46 -23 -48 -30 -19 -56 12 -10 28 -32 36 -48 9 -16 31 -44 49 -62 30 -28
39 -31 67 -24 35 7 94 44 217 136 130 96 153 126 144 186 -10 57 49 78 77 27
9 -19 13 -17 62 25 29 24 85 66 125 94 73 51 126 103 100 101 -7 -1 -53 -7
-103 -13z"/>
<path d="M12143 8737 c0 -8 -16 -40 -36 -73 -22 -35 -45 -93 -58 -144 -32
-126 -54 -162 -142 -233 l-47 -38 0 -155 c0 -86 -5 -164 -10 -174 -13 -24 12
-131 47 -206 27 -59 348 -433 434 -505 51 -44 148 -104 155 -97 5 5 94 290 94
300 0 5 17 57 39 116 21 59 44 130 50 157 14 61 16 326 3 352 -5 10 -13 41
-17 68 -4 28 -16 71 -27 98 l-20 47 -97 1 c-53 0 -109 2 -125 3 -32 2 -76 46
-76 76 0 10 -4 21 -9 24 -4 3 -11 24 -15 46 -7 47 8 89 49 138 l28 33 -59 61
c-58 59 -134 118 -152 118 -5 0 -9 -6 -9 -13z"/>
<path d="M11298 8641 c-27 -14 -48 -32 -48 -40 0 -9 6 -11 18 -6 33 15 83 17
111 5 33 -13 67 -69 58 -94 -9 -23 -54 -20 -67 3 -8 17 -15 18 -38 10 -46 -17
-65 -35 -57 -59 12 -39 125 -148 190 -185 59 -33 69 -35 152 -35 73 1 92 4
112 21 l24 20 -23 42 c-96 173 -212 284 -350 334 -19 7 -35 12 -35 12 0 -1
-21 -13 -47 -28z"/>
<path d="M10969 8529 c-59 -43 -230 -221 -278 -289 -47 -68 -73 -125 -118
-260 -32 -97 -63 -147 -100 -161 -6 -2 -39 -58 -73 -124 -35 -66 -67 -127 -71
-135 -23 -42 -70 -219 -80 -302 -14 -116 -7 -194 25 -279 14 -37 28 -89 32
-116 7 -54 45 -129 141 -274 33 -52 77 -119 96 -149 19 -30 71 -112 115 -181
101 -158 134 -228 182 -398 43 -153 48 -177 55 -276 2 -38 9 -118 16 -176 9
-80 9 -114 0 -139 -6 -18 -9 -35 -7 -37 14 -15 314 224 454 361 87 85 92 93
92 132 0 106 -43 429 -75 559 -18 77 -43 199 -55 270 -26 161 -52 241 -97 308
-52 76 -79 142 -91 227 -35 229 -42 287 -53 415 -7 77 -13 183 -15 235 -4 135
14 442 31 525 8 39 19 98 24 132 5 35 21 79 35 102 31 49 32 55 7 41 -24 -12
-64 -13 -76 -1 -6 5 -24 12 -41 15 -24 5 -39 0 -75 -25z"/>
<path d="M12440 8460 c-23 -23 -26 -50 -8 -68 14 -14 98 -16 98 -2 0 17 -25
65 -40 77 -21 17 -27 16 -50 -7z"/>
<path d="M11210 8366 c0 -17 -7 -67 -15 -111 -17 -96 -37 -428 -30 -505 7 -84
27 -353 27 -370 0 -25 27 -195 47 -290 13 -66 28 -103 55 -144 49 -74 83 -150
96 -211 5 -27 24 -122 41 -210 17 -88 41 -200 54 -250 12 -49 28 -139 35 -200
6 -60 13 -119 15 -130 2 -11 4 -53 4 -92 1 -42 5 -73 11 -73 16 0 70 62 235
265 134 166 171 205 286 300 74 61 143 127 158 151 68 108 152 301 209 481
l11 32 -67 37 c-83 46 -167 126 -331 314 -182 208 -210 244 -237 301 -36 74
-104 331 -111 421 l-6 76 -96 4 c-130 5 -185 32 -303 149 -87 85 -88 86 -88
55z"/>
<path d="M2270 7756 c-170 -37 -310 -114 -440 -245 -86 -87 -149 -176 -181
-259 -21 -50 -23 -74 -23 -202 0 -127 3 -152 23 -203 48 -122 120 -166 286
-174 168 -9 413 26 574 81 222 77 430 198 738 429 98 74 224 165 281 202 56
38 102 72 102 75 0 3 -39 14 -87 24 -101 21 -260 70 -488 151 -88 31 -185 63
-215 71 -30 8 -84 24 -120 36 -84 27 -350 35 -450 14z"/>
<path d="M10676 6000 c3 -14 10 -29 15 -34 14 -16 10 6 -7 34 l-15 25 7 -25z"/>
<path d="M4695 5609 c-181 -14 -557 -85 -640 -119 -11 -5 -65 -25 -120 -46
-299 -109 -748 -313 -952 -432 -177 -104 -308 -221 -690 -619 -178 -185 -268
-338 -358 -606 -54 -160 -62 -277 -39 -512 12 -123 71 -255 138 -310 91 -74
257 -135 417 -155 72 -8 135 -8 250 0 354 26 625 116 897 296 164 109 614 591
783 839 133 195 328 588 423 855 40 110 152 408 204 540 56 141 94 261 86 270
-9 9 -283 9 -399 -1z"/>
<path d="M5209 5573 c-9 -24 -31 -85 -80 -223 -7 -19 -27 -73 -45 -120 -56
-145 -112 -292 -139 -361 -14 -36 -25 -71 -25 -77 0 -6 -16 -48 -36 -92 -19
-45 -34 -85 -32 -90 2 -5 46 32 98 83 89 85 183 173 291 273 111 102 255 202
442 308 54 31 54 37 11 112 -30 52 -79 89 -168 127 -59 25 -272 87 -298 87 -5
0 -13 -12 -19 -27z"/>
<path d="M5665 5162 c-192 -121 -264 -173 -391 -287 -177 -157 -572 -560 -561
-571 8 -9 403 195 493 254 113 74 178 138 279 274 96 128 228 334 223 346 -1
5 -21 -2 -43 -16z"/>
<path d="M3745 2624 c-216 -10 -497 -47 -765 -100 -151 -30 -430 -105 -505
-135 -11 -4 -54 -20 -95 -34 -100 -35 -405 -152 -455 -175 -22 -10 -69 -30
-105 -45 -366 -154 -702 -428 -840 -686 -39 -73 -39 -120 -2 -180 73 -114 198
-172 407 -190 61 -5 115 -10 120 -10 68 -2 638 23 690 31 39 5 104 14 145 19
273 36 495 83 995 212 906 233 1082 303 1715 679 8 5 60 35 115 66 55 32 143
82 195 112 103 59 320 195 359 224 28 21 34 19 -129 57 -216 50 -526 107 -698
126 -29 4 -89 11 -135 16 -78 10 -863 20 -1012 13z"/>
</g>
</svg>
